<svg class="confetti-animation" width="1440" height="1024" viewBox="0 0 1440 1024" xmlns="http://www.w3.org/2000/svg">
  <g stroke="rgba(0, 0, 0, .05)" stroke-width="1.5" fill="none" fill-rule="evenodd"><circle transform="rotate(-159 1083.85 0)" cx="1038.963" cy="242.196" r="11"/><circle transform="rotate(-60 2524.034 0)" cx="812.334" cy="988.25" r="11"/><circle transform="rotate(-31 618.09 70.622)" cx="618.089" cy="70.622" r="11"/><circle transform="rotate(123 301.04 766.998)" cx="301.039" cy="766.998" r="11"/><circle transform="rotate(-95 319.52 373.024)" cx="319.52" cy="373.024" r="11"/><path d="M1046.12 71.177l9.295-12.59-14.968-3.168zM950.56 371.05l-.428 15.643-13.745-6.72zM676.508 467.07l-15.62-.975 7.196-13.502zM429.47 124.977l14.233 6.506-11.556 10.027zM313.717 997.87l-9.512-12.428 14.91-3.428zM146.88 864.304l-.428-15.644-13.745 6.72zM31.296 124.357l-4.948-14.847 15.214 1.613zM1364.692 441.08l8.88 12.886 7.867-13.12zM1089.573 15.317l12.59-9.293 3.168 14.967zM644.074 1000.205l-7.21-13.89 15.28-.787zM469.682 321.097l-15.603-1.21 5.245 14.372zM148.79 328.634l15.62-.937-5.495 14.278zM1275.477 137.065l7.217 8.302-3.58 10.4-10.8 2.1-7.216-8.302 3.58-10.4zM111.678 72.96l-10.993.383-5.83-9.33 5.165-9.71 10.993-.385 5.83 9.33zM1379.964 390.44l1.127 12.883 12.6 2.91 6.66-11.086-8.482-9.76zM1139.858 477.792l-.226-12.93-12.366-3.78-7.417 10.592 7.78 10.328zM1189.03 382.915l10.844 7.043-3.347 12.49-12.913.677-4.635-12.072zM1307.635 686.776l-7.644 6.896-2.25-9.743zM862.044 575.126l4.032 9.473-9.946-1.046zM581.523 467.76l7.537-7.013-9.51-3.09zM1110.835 651.276l-7.83 2.834-3.132-7.715 7.83-2.834zM991.276 936.995l-3.767-7.426 7.274-4.05 3.767 7.425zM932.61 464.167l-8.313-.45.13-8.327 8.315.45zM908.91 74.23l8.046-2.142 2.45 7.96-8.048 2.14zM409.71 701.333l2.45-7.96 8.046 2.142-2.448 7.96zM53.715 937.006l-8.306-.595.275-8.32 8.305.594zM93.253 642.027l-6.83-4.764-5.022 6.64 6.83 4.765zM43.452 569.217l.71-8.297-8.262-1.03-.71 8.297zM100.707 478.522l-3.767 7.426 7.275 4.05 3.767-7.426zM1339.85 233.175l-8.244 1.173.855 8.283 8.245-1.172zM1005.257 385.866l-8.047 2.14-2.45-7.957 8.048-2.142zM140.228 40.455l-3.4-7.6-7.726 3.105 3.4 7.6zM1406.397 937.037h5.657v-5.657h-5.657zM1028.767 481.078l3.08-4.744-4.744-3.08-3.08 4.743zM929.666 925.846l-5.464-1.464-1.464 5.464 5.464 1.464zM775.12 261.53l.1-5.657 5.655.1-.1 5.655zM688.893 569.762l3.93 4.07-4.07 3.93-3.93-4.07zM678.974 311.945l5.512 1.273-1.273 5.51-5.512-1.27zM1118.964 774.9l-16.46 18.78 16.654-1.01zM862.232 192.6l-16.46-18.78 16.654 1.01zM745.16 50.51l-3.806-24.68-9.93 13.407zM518.294 777.52l-22.097 11.632 15.91 5.025zM454.215 46.376l3.577 24.714-13.417-9.917zM225.37 757.653l-23.113-9.45 6.377 15.418zM961.08 136.54l7.777-13.473 13.473 7.778-7.78 13.472zM313.452 596.058l14.424-5.827-5.828-14.423-14.423 5.828zM1206.876 519.122l14.502 4.656M964.25 890.52l15.224.478M562.404 230.023l.213 15.23M320.66 144.514l-13.347-7.338M95.042 370.064l14.792-3.634M1322.115 70.287s8.23 5.01 15.417-5.408M502.807 637.124s-2.277 9.36-14.725 7.078M513.67 382.174s7.234 6.362 16.12-2.65M438.374 957.43s7.86-5.57 15.757 4.32M370.9 574.588s-9.18 2.925-6.032 15.183M206.504 466.56s9.467-1.785 7.838-14.335M1343.048 122.28l8.903 19.943M1097.062 125.002l2.262-21.723M691.1 701.035l-21.186 5.304M550.365 13.96l-13.462 17.198M349.952 428.218l-21.1-5.633M207.023 665.277l-19.45-9.933M204.518 275.126l17.455 13.127M1413.584 869.958s20.824 6.08 16.152 29.88M909.257 856.937s13.273 17.16-4.496 33.667M397.248 872.554s19.105 10.277 9.587 32.585M42.57 825.42s9.756-19.378-10.836-32.192M897.985 251.425l4.902 2.284 2.97-4.89 5.346 2.834 1.75-3.757M802.906 173.624l-4.587 2.865-3.545-4.492-4.96 3.464-2.196-3.516M291.562 882.508l5.388.47 1.118-5.61 5.993.834.36-4.13M124.465 948.94l5.29 1.122 1.794-5.432 5.846 1.56.86-4.056M205.24 179.994l-5.2 1.49-2.167-5.294-5.724 1.963-1.142-3.985M1286.498 28.604c9.16-11.555.887-28.414-11.28-29.948M876.296 787.395c-12.718 7.462-28.26-3.076-28.088-15.337M699.352 845.834c-10.353 10.5-28.094 4.343-31.1-7.545M445.972 735.177c-11.06-9.75-28.33-2.373-30.498 9.696M1317.167 584.387l10.823-5.047 5.65 12.114 10.928-5.096 5.76 12.357M1272.315 820.82l-11.926.626-.7-13.348-12.042.63-.714-13.614M975.98 800.642l11.826-1.662-1.86-13.236 11.94-1.678-1.896-13.5M1040.836 662.68l-5.42-10.64-11.91 6.067-5.475-10.744-12.147 6.19M782.694 680.392l-10.015 6.504-7.28-11.21-10.114 6.567-7.425-11.434M774.308 592.113l11.68-2.482 2.78 13.075 11.794-2.507 2.835 13.336M614.44 143.018l11.796 1.868 2.09-13.202 11.91 1.887 2.133-13.465"/><circle transform="rotate(53 1348.828 732.806)" cx="1348.828" cy="732.806" r="3"/><circle transform="rotate(-91 2107.278 0)" cx="1172.837" cy="950.894" r="3"/><circle transform="rotate(164 982.067 550.224)" cx="982.067" cy="550.224" r="3"/><circle transform="rotate(105 390.53 0)" cx="751.119" cy="469.93" r="3"/><circle transform="rotate(31 396.574 270.34)" cx="396.574" cy="270.341" r="3"/><circle transform="rotate(-133 1242.445 0)" cx="1138.44" cy="239.196" r="6"/><circle transform="rotate(-89 730.838 383.063)" cx="730.838" cy="383.063" r="6"/><circle transform="rotate(-161 671.714 0)" cx="520.683" cy="902.524" r="6"/><circle transform="rotate(-30 1089.92 0)" cx="527.57" cy="150.681" r="6"/><circle transform="rotate(60 -135.9 0)" cx="313.33" cy="259.363" r="6"/><circle transform="rotate(-94 142.344 551.645)" cx="142.344" cy="551.645" r="6"/><circle transform="rotate(130 1068.168 0)" cx="1393.219" cy="697.072" r="3"/><circle transform="rotate(32 865.438 668.938)" cx="865.438" cy="668.938" r="3"/><circle transform="rotate(38 -1487.404 0)" cx="648.995" cy="735.621" r="3"/><circle transform="rotate(-148 579.47 947.243)" cx="579.471" cy="947.243" r="3"/><circle transform="rotate(-131 375.172 450.977)" cx="375.172" cy="450.977" r="3"/><circle transform="rotate(-113 674.416 0)" cx="260.783" cy="624.931" r="3"/><circle transform="rotate(-33 3133.354 0)" cx="96.697" cy="899.499" r="3"/><circle transform="rotate(113 1168.377 537.826)" cx="1168.377" cy="537.826" r="2.5"/><circle transform="rotate(51 618.79 238.207)" cx="618.789" cy="238.207" r="2.5"/><circle transform="rotate(-129 1290.48 909.27)" cx="1290.481" cy="909.27" r="16"/><circle transform="rotate(-104 1144.003 910.242)" cx="1144.003" cy="910.242" r="16"/><circle transform="rotate(-13 551.666 589.502)" cx="551.666" cy="589.502" r="16"/><circle transform="rotate(126 269.005 0)" cx="312.687" cy="85.732" r="16"/></g>
</svg>
